<svg width="72" height="28" viewBox="0 0 72 28" fill="none" xmlns="http://www.w3.org/2000/svg">
<rect width="10.7155" height="3.23878" transform="matrix(0.672348 -0.740235 0.773286 0.634057 1.49194 12.932)" fill="#171717"/>
<rect width="3.21465" height="7.77308" transform="matrix(0.672348 -0.740235 0.773286 0.634057 1.49194 12.932)" fill="#171717"/>
<rect width="10.7155" height="3.23878" transform="matrix(-0.672348 0.740235 -0.773286 -0.634057 16.5081 15.068)" fill="#171717"/>
<rect width="3.21465" height="7.77308" transform="matrix(-0.672348 0.740235 -0.773286 -0.634057 16.5081 15.068)" fill="#171717"/>
<path d="M20.72 7.84C21.0533 7.85333 21.48 7.86667 22 7.88C22.52 7.89333 23.04 7.9 23.56 7.9C24.2133 7.9 24.8333 7.89333 25.42 7.88C26.0067 7.86667 26.42 7.86 26.66 7.86C28.2333 7.86 29.4067 8.15333 30.18 8.74C30.9667 9.32667 31.36 10.08 31.36 11C31.36 11.4667 31.2333 11.9333 30.98 12.4C30.74 12.8667 30.3467 13.2867 29.8 13.66C29.2667 14.0333 28.5667 14.3133 27.7 14.5V14.54C28.8733 14.6467 29.8 14.8867 30.48 15.26C31.1733 15.62 31.6667 16.0533 31.96 16.56C32.2533 17.0533 32.4 17.5733 32.4 18.12C32.4 18.9333 32.1867 19.6333 31.76 20.22C31.3467 20.7933 30.7467 21.2333 29.96 21.54C29.1733 21.8467 28.2267 22 27.12 22C26.8267 22 26.38 21.9933 25.78 21.98C25.18 21.9533 24.4533 21.94 23.6 21.94C23.0533 21.94 22.52 21.9467 22 21.96C21.48 21.96 21.0533 21.9733 20.72 22V21.6C21.16 21.5733 21.4867 21.52 21.7 21.44C21.9267 21.36 22.0733 21.2 22.14 20.96C22.22 20.72 22.26 20.36 22.26 19.88V9.96C22.26 9.46667 22.22 9.10667 22.14 8.88C22.0733 8.64 21.9267 8.48 21.7 8.4C21.4867 8.30667 21.16 8.25333 20.72 8.24V7.84ZM26.32 8.24C25.7733 8.24 25.4133 8.35333 25.24 8.58C25.08 8.80667 25 9.26667 25 9.96V19.88C25 20.3467 25.04 20.7 25.12 20.94C25.2 21.18 25.34 21.34 25.54 21.42C25.74 21.5 26.0333 21.54 26.42 21.54C27.5133 21.54 28.3 21.24 28.78 20.64C29.2733 20.0267 29.52 19.16 29.52 18.04C29.52 17.0133 29.2533 16.22 28.72 15.66C28.2 15.1 27.3333 14.82 26.12 14.82H24.3C24.3 14.82 24.3 14.7667 24.3 14.66C24.3 14.54 24.3 14.48 24.3 14.48H26.02C26.7 14.48 27.2267 14.3333 27.6 14.04C27.9733 13.7333 28.2267 13.3333 28.36 12.84C28.4933 12.3333 28.56 11.7933 28.56 11.22C28.56 10.2333 28.3867 9.49333 28.04 9C27.6933 8.49333 27.12 8.24 26.32 8.24ZM36.0469 6.56C36.5269 6.56 36.9202 6.69333 37.2269 6.96C37.5335 7.22667 37.6869 7.58 37.6869 8.02C37.6869 8.46 37.5335 8.81333 37.2269 9.08C36.9202 9.34667 36.5269 9.48 36.0469 9.48C35.5669 9.48 35.1735 9.34667 34.8669 9.08C34.5602 8.81333 34.4069 8.46 34.4069 8.02C34.4069 7.58 34.5602 7.22667 34.8669 6.96C35.1735 6.69333 35.5669 6.56 36.0469 6.56ZM37.4469 11.44V20.14C37.4469 20.7 37.5469 21.08 37.7469 21.28C37.9602 21.48 38.3135 21.58 38.8069 21.58V22C38.5669 21.9867 38.2002 21.9733 37.7069 21.96C37.2135 21.9333 36.7135 21.92 36.2069 21.92C35.7135 21.92 35.2135 21.9333 34.7069 21.96C34.2002 21.9733 33.8202 21.9867 33.5669 22V21.58C34.0602 21.58 34.4069 21.48 34.6069 21.28C34.8202 21.08 34.9269 20.7 34.9269 20.14V13.86C34.9269 13.2467 34.8269 12.8 34.6269 12.52C34.4402 12.2267 34.0869 12.08 33.5669 12.08V11.66C33.9935 11.7 34.4069 11.72 34.8069 11.72C35.3002 11.72 35.7669 11.7 36.2069 11.66C36.6602 11.6067 37.0735 11.5333 37.4469 11.44ZM43.4792 6.34V20.14C43.4792 20.7 43.5792 21.08 43.7792 21.28C43.9926 21.48 44.3459 21.58 44.8392 21.58V22C44.5992 21.9867 44.2326 21.9733 43.7392 21.96C43.2592 21.9333 42.7659 21.92 42.2592 21.92C41.7659 21.92 41.2592 21.9333 40.7392 21.96C40.2326 21.9733 39.8526 21.9867 39.5992 22V21.58C40.0926 21.58 40.4392 21.48 40.6392 21.28C40.8526 21.08 40.9592 20.7 40.9592 20.14V8.74C40.9592 8.14 40.8659 7.7 40.6792 7.42C40.4926 7.12667 40.1326 6.98 39.5992 6.98V6.56C40.0259 6.6 40.4392 6.62 40.8392 6.62C41.3459 6.62 41.8192 6.6 42.2592 6.56C42.6992 6.50667 43.1059 6.43333 43.4792 6.34ZM49.612 6.34V20.14C49.612 20.7 49.712 21.08 49.912 21.28C50.1254 21.48 50.4787 21.58 50.972 21.58V22C50.732 21.9867 50.3654 21.9733 49.872 21.96C49.392 21.9333 48.8987 21.92 48.392 21.92C47.8987 21.92 47.392 21.9333 46.872 21.96C46.3654 21.9733 45.9854 21.9867 45.732 22V21.58C46.2254 21.58 46.572 21.48 46.772 21.28C46.9854 21.08 47.092 20.7 47.092 20.14V8.74C47.092 8.14 46.9987 7.7 46.812 7.42C46.6254 7.12667 46.2654 6.98 45.732 6.98V6.56C46.1587 6.6 46.572 6.62 46.972 6.62C47.4787 6.62 47.952 6.6 48.392 6.56C48.832 6.50667 49.2387 6.43333 49.612 6.34ZM60.2267 11.58L54.9667 21.7H56.4067C56.9267 21.7 57.4001 21.5933 57.8267 21.38C58.2667 21.1533 58.6334 20.7867 58.9267 20.28C59.2201 19.7733 59.3934 19.0933 59.4467 18.24H59.8867C59.8867 19.1733 59.8934 19.9467 59.9067 20.56C59.9201 21.1733 59.9401 21.68 59.9667 22.08C59.3667 22.0533 58.7401 22.0333 58.0867 22.02C57.4467 22.0067 56.8067 22 56.1667 22C55.4867 22 54.7934 22.0067 54.0867 22.02C53.3801 22.0467 52.7001 22.0733 52.0467 22.1L57.3067 11.98H55.8267C55.2801 11.98 54.7867 12.0933 54.3467 12.32C53.9201 12.5333 53.5734 12.8933 53.3067 13.4C53.0534 13.8933 52.8934 14.5733 52.8267 15.44H52.3867C52.3867 14.4933 52.3801 13.72 52.3667 13.12C52.3534 12.5067 52.3334 12 52.3067 11.6C52.9067 11.6267 53.5267 11.6467 54.1667 11.66C54.8201 11.6733 55.4667 11.68 56.1067 11.68C56.7867 11.68 57.4801 11.6733 58.1867 11.66C58.8934 11.6333 59.5734 11.6067 60.2267 11.58ZM70.9794 11.66V12.08C70.726 12.1333 70.486 12.2733 70.2594 12.5C70.046 12.7267 69.8394 13.1267 69.6394 13.7L66.6794 21.82L66.0594 22.76L61.9394 13.2C61.686 12.6933 61.446 12.38 61.2194 12.26C60.9927 12.14 60.806 12.08 60.6594 12.08V11.66C61.046 11.7 61.446 11.7333 61.8594 11.76C62.286 11.7733 62.7127 11.78 63.1394 11.78C63.6327 11.78 64.106 11.7667 64.5594 11.74C65.026 11.7133 65.4594 11.6867 65.8594 11.66V12.08C65.5527 12.08 65.2794 12.1 65.0394 12.14C64.7994 12.18 64.6394 12.2933 64.5594 12.48C64.4927 12.6533 64.546 12.96 64.7194 13.4L67.2194 19.5L67.0594 19.58L68.8194 14.82C69.046 14.1933 69.1394 13.6867 69.0994 13.3C69.0594 12.9133 68.9127 12.62 68.6594 12.42C68.406 12.22 68.0594 12.1067 67.6194 12.08V11.66C67.8327 11.6733 68.046 11.6867 68.2594 11.7C68.4727 11.7133 68.6794 11.7267 68.8794 11.74C69.0794 11.74 69.2727 11.74 69.4594 11.74C69.7394 11.74 70.0127 11.7333 70.2794 11.72C70.5594 11.7067 70.7927 11.6867 70.9794 11.66ZM66.6794 21.82L65.9194 23.84C65.7994 24.1733 65.666 24.4533 65.5194 24.68C65.386 24.92 65.2327 25.1133 65.0594 25.26C64.8594 25.4333 64.6127 25.56 64.3194 25.64C64.0394 25.72 63.726 25.76 63.3794 25.76C63.0727 25.76 62.7727 25.7067 62.4794 25.6C62.1994 25.4933 61.9594 25.3333 61.7594 25.12C61.5727 24.9067 61.4794 24.6267 61.4794 24.28C61.4794 23.9067 61.606 23.6067 61.8594 23.38C62.1127 23.1533 62.4594 23.04 62.8994 23.04C63.286 23.04 63.5994 23.1333 63.8394 23.32C64.0927 23.52 64.2194 23.8133 64.2194 24.2C64.2194 24.4533 64.146 24.68 63.9994 24.88C63.8527 25.08 63.646 25.2333 63.3794 25.34C63.446 25.3533 63.506 25.36 63.5594 25.36C63.626 25.3733 63.6794 25.38 63.7194 25.38C64.106 25.38 64.4527 25.2533 64.7594 25C65.066 24.7467 65.3127 24.3467 65.4994 23.8L66.2194 21.82H66.6794Z" fill="#171717"/>
</svg>
